<?xml version="1.0" standalone="no"?>
<!DOCTYPE svg PUBLIC "-//W3C//DTD SVG 20010904//EN"
 "http://www.w3.org/TR/2001/REC-SVG-20010904/DTD/svg10.dtd">
<svg version="1.0" xmlns="http://www.w3.org/2000/svg"
 width="512.000000pt" height="512.000000pt" viewBox="0 0 512.000000 512.000000"
 preserveAspectRatio="xMidYMid meet">
<metadata>
Created by potrace 1.14, written by Peter Selinger 2001-2017
</metadata>
<g transform="translate(0.000000,512.000000) scale(0.100000,-0.100000)"
fill="#000000" stroke="none">
<path d="M0 2560 l0 -2560 2560 0 2560 0 0 2560 0 2560 -2560 0 -2560 0 0
-2560z m1776 957 c119 -19 273 -66 364 -112 167 -84 287 -219 356 -401 49
-129 67 -250 67 -449 0 -142 -5 -201 -21 -280 -70 -345 -247 -542 -574 -641
-170 -51 -235 -57 -660 -61 l-398 -5 0 987 0 987 383 -5 c280 -3 409 -9 483
-20z m1484 -847 l0 -870 478 -2 477 -3 3 -112 3 -113 -616 0 -615 0 0 985 0
985 135 0 135 0 0 -870z"/>
<path d="M1180 2554 l0 -766 263 5 c280 5 344 14 467 63 77 31 176 99 219 151
118 143 176 399 152 664 -37 397 -223 591 -611 639 -46 5 -176 10 -287 10
l-203 0 0 -766z"/>
</g>
</svg>
